<svg width="62" height="62" viewBox="0 0 62 62" fill="none" xmlns="http://www.w3.org/2000/svg">
<path d="M7.75 7.75H11.2929C13.7429 7.75 15.856 9.47068 16.3524 11.8699L22.3976 41.0884C22.894 43.4876 25.0071 45.2083 27.4572 45.2083H45.2083" stroke="black" stroke-width="5.33333" stroke-linecap="round" stroke-linejoin="round"/>
<path d="M17.6289 18.0833H50.8249C52.5411 18.0833 53.7803 19.7261 53.3088 21.3764L50.6891 30.5459C49.7384 33.8729 46.6973 36.1667 43.2372 36.1667H21.3828" stroke="black" stroke-width="5.33333" stroke-linecap="round" stroke-linejoin="round"/>
<path d="M42.6247 54.25C43.338 54.25 43.9163 53.6717 43.9163 52.9583C43.9163 52.245 43.338 51.6667 42.6247 51.6667C41.9113 51.6667 41.333 52.245 41.333 52.9583C41.333 53.6717 41.9113 54.25 42.6247 54.25Z" fill="black" stroke="black" stroke-width="5.33333" stroke-linecap="round" stroke-linejoin="round"/>
<path d="M27.1247 51.6667C27.838 51.6667 28.4163 52.245 28.4163 52.9583C28.4163 53.6717 27.838 54.25 27.1247 54.25C26.4113 54.25 25.833 53.6717 25.833 52.9583C25.833 52.245 26.4113 51.6667 27.1247 51.6667Z" fill="black" stroke="black" stroke-width="5.33333" stroke-linecap="round" stroke-linejoin="round"/>
</svg>
