<svg width="30" height="30" viewBox="0 0 30 30" fill="none" xmlns="http://www.w3.org/2000/svg">
<rect width="30" height="30" fill="white"/>
<path fill-rule="evenodd" clip-rule="evenodd" d="M5 13.75C5 8.91751 8.91751 5 13.75 5C18.5825 5 22.5 8.91751 22.5 13.75C22.5 18.5825 18.5825 22.5 13.75 22.5C8.91751 22.5 5 18.5825 5 13.75ZM13.75 2.5C7.5368 2.5 2.5 7.5368 2.5 13.75C2.5 19.9632 7.5368 25 13.75 25C16.4062 25 18.8475 24.0794 20.7721 22.5399L25.3661 27.1339C25.8542 27.622 26.6458 27.622 27.1339 27.1339C27.622 26.6458 27.622 25.8542 27.1339 25.3661L22.5399 20.7721C24.0794 18.8475 25 16.4062 25 13.75C25 7.5368 19.9632 2.5 13.75 2.5Z" fill="black" fill-opacity="0.8" stroke="black" stroke-opacity="0.1"/>
</svg>
